<!-- Generated by IcoMoon.io -->
<svg version="1.1" xmlns="http://www.w3.org/2000/svg" width="32" height="32" viewBox="0 0 32 32">
<title>dots-three-horizontal</title>
<path d="M15.765 12.674c-1.837 0-3.328 1.489-3.328 3.326s1.491 3.326 3.328 3.326c1.837 0 3.325-1.489 3.325-3.326s-1.488-3.326-3.325-3.326zM5.182 12.674c-1.837 0-3.328 1.489-3.328 3.326s1.491 3.326 3.328 3.326c1.837 0 3.325-1.491 3.325-3.326s-1.488-3.326-3.325-3.326zM26.348 12.674c-1.837 0-3.328 1.489-3.328 3.326s1.491 3.326 3.328 3.326c1.837 0 3.325-1.489 3.325-3.326s-1.488-3.326-3.325-3.326z"></path>
</svg>
